#!OML:ASF F:\VICON\USERDATA\INSTALL\Justin_Nancy\Justin_Nancy.ASF
:FULLY-SPECIFIED
:DEGREES
300
root 0.640596 17.4521 6.38104 1.12489 -1.22023 0.408799
lowerback -0.881282 -0.962934 -2.66711
upperback -2.21628 -1.26873 1.66828
thorax -1.68563 -0.575601 3.21728
lowerneck -17.232 -4.6294 -10.0154
upperneck 22.4002 -5.5585 7.35287
head 10.5287 -2.56311 3.51203
rclavicle 5.11871e-015 -6.36111e-015
rhumerus -32.6796 -15.6542 -77.8648
rradius 29.6556
rwrist 8.03712
rhand -16.8236 11.9418
rfingers 7.12502
rthumb 9.4055 -17.8284
lclavicle 5.11871e-015 -6.36111e-015
lhumerus -31.6806 18.7089 81.7593
lradius 18.3009
lwrist -18.0726
lhand -14.7437 26.9604
lfingers 7.12502
lthumb 11.4119 56.6298
rfemur -6.42563 5.36553 24.1143
rtibia 28.6875
rfoot -14.4909 -12.2765
rtoes -0.25219
lfemur -8.07824 -4.48468 -21.9233
ltibia 30.7604
lfoot -16.4767 5.91143
ltoes 0.970629
301
root 0.631078 17.4525 6.39991 1.16405 -1.18463 0.344339
lowerback -0.84586 -0.926059 -2.59572
upperback -2.23143 -1.21992 1.67974
thorax -1.72584 -0.551344 3.18963
lowerneck -17.156 -4.70567 -10.0502
upperneck 22.2199 -5.66809 7.40626
head 10.4626 -2.6106 3.51836
rclavicle -3.37934e-015 -4.77083e-015
rhumerus -32.6507 -15.5404 -77.893
rradius 29.7622
rwrist 7.91412
rhand -16.8989 11.8274
rfingers 7.12502
rthumb 9.33293 -17.946
lclavicle -3.37934e-015 -4.77083e-015
lhumerus -31.8479 19.2903 81.6616
lradius 18.0869
lwrist -18.5018
lhand -13.6423 28.4036
lfingers 7.12502
lthumb 12.474 58.0113
rfemur -6.31518 5.33006 24.228
rtibia 28.5442
rfoot -14.4685 -12.3374
rtoes -0.670863
lfemur -8.06165 -4.39886 -21.8133
ltibia 30.8127
lfoot -16.5424 5.84902
ltoes 0.897367
302
root 0.623108 17.4571 6.41504 1.34722 -1.08342 0.204363
lowerback -0.973679 -0.913614 -2.45197
upperback -2.31658 -1.19984 1.7222
thorax -1.74493 -0.541899 3.1511
lowerneck -16.9234 -4.75886 -10.1146
upperneck 22.01 -5.74593 7.44058
head 10.3535 -2.65163 3.52878
rclavicle -1.58282e-014 1.23246e-014
rhumerus -32.6344 -15.5194 -77.8409
rradius 29.7546
rwrist 7.86411
rhand -16.9299 12.0011
rfingers 7.12502
rthumb 9.30295 -17.7736
lclavicle -1.58282e-014 1.23246e-014
lhumerus -32.1077 19.5126 81.6757
lradius 17.9695
lwrist -18.6086
lhand -13.4394 28.2825
lfingers 7.12502
lthumb 12.6696 57.8782
rfemur -6.40582 5.21027 24.3996
rtibia 28.4493
rfoot -14.441 -12.3169
rtoes -0.851571
lfemur -8.2453 -4.44658 -21.6022
ltibia 30.8593
lfoot -16.5424 5.76926
ltoes 1.00264
303
root 0.616193 17.4595 6.43023 1.46997 -1.174 -0.00752875
lowerback -1.08027 -0.839802 -2.23206
upperback -2.39199 -1.09832 1.77279
thorax -1.77273 -0.493039 3.07821
lowerneck -16.9156 -4.79122 -10.1252
upperneck 22.0687 -5.79744 7.45763
head 10.3794 -2.67471 3.53016
rclavicle -8.94531e-015 1.59028e-014
rhumerus -32.713 -15.2796 -77.9101
rradius 29.9645
rwrist 7.52158
rhand -16.949 11.9914
rfingers 7.12502
rthumb 9.28458 -17.7842
lclavicle -8.94531e-015 1.59028e-014
lhumerus -32.4044 19.3068 81.7801
lradius 17.8426
lwrist -18.51
lhand -13.8086 27.1612
lfingers 7.12502
lthumb 12.3136 56.7786
rfemur -6.43732 5.31219 24.6616
rtibia 28.3721
rfoot -14.4472 -12.3178
rtoes -0.681816
lfemur -8.33802 -4.49822 -21.3551
ltibia 30.8957
lfoot -16.5688 5.975
ltoes 0.636207
304
root 0.61418 17.4545 6.45623 1.46529 -1.37557 0.133049
lowerback -1.22748 -0.74367 -2.31984
upperback -2.37172 -0.968081 1.73691
thorax -1.67765 -0.42843 3.08789
lowerneck -17.1051 -4.82428 -10.1291
upperneck 22.3111 -5.80548 7.33621
head 10.5009 -2.68995 3.48738
rclavicle 5.46658e-015 8.74653e-015
rhumerus -32.6414 -15.2202 -77.8833
rradius 29.9531
rwrist 7.42918
rhand -16.9332 12.2922
rfingers 7.12502
rthumb 9.29983 -17.4827
lclavicle 5.46658e-015 8.74653e-015
lhumerus -32.6989 19.6666 81.7143
lradius 17.6845
lwrist -18.9262
lhand -13.9714 26.4434
lfingers 7.12502
lthumb 12.1567 56.0702
rfemur -6.31624 5.37257 24.495
rtibia 28.3524
rfoot -14.6159 -12.1626
rtoes -0.427593
lfemur -8.16873 -4.59244 -21.5589
ltibia 30.8815
lfoot -16.3464 6.86571
ltoes 0.36213
305
root 0.61513 17.4518 6.48157 1.49351 -1.4962 0.335665
lowerback -1.31093 -0.684037 -2.42769
upperback -2.44963 -0.887637 1.67602
thorax -1.71621 -0.385274 3.08545
lowerneck -16.9478 -4.78951 -10.1577
upperneck 22.3333 -5.747 7.26493
head 10.4718 -2.67735 3.47711
rclavicle -1.92076e-014 -7.95139e-016
rhumerus -32.7593 -15.1503 -77.8279
rradius 29.9444
rwrist 7.55769
rhand -16.9502 12.4799
rfingers 7.12502
rthumb 9.28336 -17.2957
lclavicle -1.92076e-014 -7.95139e-016
lhumerus -33.1002 20.1469 81.575
lradius 17.6095
lwrist -19.205
lhand -13.8104 26.7112
lfingers 7.12502
lthumb 12.3119 56.3287
rfemur -6.2667 5.21997 24.222
rtibia 28.3409
rfoot -14.8542 -11.9721
rtoes -0.262489
lfemur -8.03885 -4.61918 -21.839
ltibia 30.8636
lfoot -16.0543 7.46633
ltoes 0.840705
306
root 0.608688 17.4489 6.499 1.60222 -1.57824 0.483804
lowerback -1.27145 -0.633891 -2.63611
upperback -2.67775 -0.821375 1.69408
thorax -1.97568 -0.340682 3.22438
lowerneck -16.6452 -4.75497 -10.3343
upperneck 22.4212 -5.70149 7.32703
head 10.4493 -2.67163 3.54106
rclavicle -1.45858e-014 4.37326e-015
rhumerus -33.1001 -14.7242 -77.7557
rradius 30.0417
rwrist 7.39254
rhand -17.068 12.5642
rfingers 7.12502
rthumb 9.16974 -17.2164
lclavicle -1.45858e-014 4.37326e-015
lhumerus -33.7134 19.8966 81.7972
lradius 17.8402
lwrist -18.8616
lhand -13.7456 27.1163
lfingers 7.12502
lthumb 12.3744 56.7301
rfemur -6.34651 5.16977 24.061
rtibia 28.3286
rfoot -14.9337 -11.9541
rtoes -0.967873
lfemur -8.08474 -4.60728 -21.9867
ltibia 30.8407
lfoot -16.0533 7.45523
ltoes 1.06632
307
root 0.599025 17.4477 6.51312 1.67556 -1.64957 0.390408
lowerback -1.21141 -0.540453 -2.59303
upperback -2.81949 -0.697527 1.72199
thorax -2.16505 -0.274057 3.23058
lowerneck -16.301 -4.79927 -10.3459
upperneck 22.2563 -5.78002 7.29327
head 10.3313 -2.71876 3.52008
rclavicle 2.13694e-015 -1.27222e-014
rhumerus -33.3101 -14.8412 -77.6359
rradius 30.0822
rwrist 7.53352
rhand -17.1219 12.6308
rfingers 7.12502
rthumb 9.11769 -17.1521
lclavicle 2.13694e-015 -1.27222e-014
lhumerus -34.1064 19.5756 81.9632
lradius 17.9114
lwrist -18.9127
lhand -14.0501 26.3935
lfingers 7.12502
lthumb 12.0808 56.0248
rfemur -6.34331 5.41928 24.2282
rtibia 28.239
rfoot -14.829 -12.1519
rtoes -1.24678
lfemur -8.14511 -4.66168 -21.8435
ltibia 30.8822
lfoot -15.8133 8.02883
ltoes 1.69317
308
root 0.594912 17.4483 6.5298 1.71402 -1.64576 0.166617
lowerback -1.28406 -0.485073 -2.28857
upperback -2.79785 -0.621107 1.75825
thorax -2.10952 -0.242965 3.09502
lowerneck -16.192 -4.89724 -10.5114
upperneck 22.1103 -5.90823 7.41604
head 10.2809 -2.7791 3.57222
rclavicle -9.93923e-017 -9.54166e-015
rhumerus -33.2421 -14.955 -77.6399
rradius 30.2222
rwrist 7.54621
rhand -17.0297 12.1966
rfingers 7.12502
rthumb 9.20672 -17.5824
lclavicle -9.93923e-017 -9.54166e-015
lhumerus -34.2438 19.7393 81.9639
lradius 17.88
lwrist -19.1129
lhand -14.3416 25.5271
lfingers 7.12502
lthumb 11.7997 55.1747
rfemur -6.25097 5.45496 24.5029
rtibia 28.1253
rfoot -14.8341 -12.173
rtoes -0.979554
lfemur -8.13638 -4.66069 -21.5702
ltibia 30.9436
lfoot -15.9557 8.04768
ltoes 1.86993
